<svg width="375" height="503" viewBox="0 0 375 503" fill="none" xmlns="http://www.w3.org/2000/svg">
<mask id="mask0_207_91" style="mask-type:alpha" maskUnits="userSpaceOnUse" x="81" y="-309" width="375" height="812">
<rect x="81" y="-309" width="375" height="812" fill="white"/>
</mask>
<g mask="url(#mask0_207_91)">
<g opacity="0.2">
<path d="M332.318 -47.2844C331.296 -47.5096 330.245 -47.5634 329.206 -47.4438C326.113 -46.9488 323.184 -45.6856 320.677 -43.7645C318.169 -41.8434 316.158 -39.3226 314.82 -36.4222C313.744 -33.5653 313.366 -30.482 313.72 -27.4412C313.907 -22.9257 314.689 -18.4568 316.044 -14.1558C317.641 -8.43753 320.853 -3.33091 325.275 0.522041C327.166 2.28764 329.528 3.43486 332.059 3.81684C334.341 4.05066 337.515 4.12506 339.537 2.754C341.9 2.8057 344.218 2.09559 346.165 0.72398C348.328 -1.06853 350.057 -3.34929 351.217 -5.94002C353.872 -12.062 354.328 -19.5869 353.768 -26.1339C353.303 -32.4402 350.915 -38.4371 346.943 -43.2775C343.603 -47.2738 337.183 -49.6333 332.318 -47.2844ZM327.879 0.181933C323.045 -3.08098 319.633 -8.41643 317.766 -13.9432C317.454 -14.8466 317.164 -15.7713 316.884 -16.7172C316.355 -19.3318 315.847 -21.9464 315.598 -24.6035C315.349 -27.2605 314.872 -30.4916 315.401 -33.2337C316.065 -36.0162 317.388 -38.5881 319.253 -40.7218C321.119 -42.8555 323.468 -44.4853 326.095 -45.467C327.825 -46.0579 329.671 -46.2003 331.467 -45.8815C331.566 -45.7211 331.72 -45.6047 331.899 -45.5554C332.078 -45.5062 332.268 -45.5277 332.432 -45.6158C332.874 -45.4712 333.299 -45.2751 333.698 -45.0312C334.289 -44.6555 334.773 -44.1264 335.101 -43.4975C335.429 -42.8685 335.589 -42.162 335.565 -41.4494C335.5 -40.8339 335.671 -40.2166 336.042 -39.7276C337.318 -38.2078 339.589 -37.772 341.166 -36.6348C342.742 -35.4975 342.607 -33.797 342.037 -32.0965C341.778 -31.3418 341.373 -30.6935 341.653 -29.8751C342.172 -28.3021 344.392 -27.3349 345.439 -26.2296C346.487 -25.1242 347.441 -23.9339 347.099 -22.4565C346.705 -20.7666 345.024 -20.097 343.707 -19.3955C342.784 -18.9173 341.394 -18.2052 341.55 -16.9191C341.757 -15.3142 343.883 -14.5915 344.661 -13.348C346.539 -10.3933 343.852 -8.56523 341.404 -7.81061C340.077 -7.38548 339.164 -6.74777 339.33 -5.16414C339.496 -3.58052 340.201 -2.6027 339.838 -1.04033C339.662 -0.262622 339.246 0.436279 338.652 0.953058C338.058 1.46984 337.317 1.77707 336.54 1.82933C333.55 2.44321 330.444 1.85321 327.868 0.181933L327.879 0.181933ZM346.964 -40.4185C350.121 -35.8251 351.922 -30.3976 352.15 -24.7841C352.316 -19.268 352.202 -13.72 350.532 -8.4058C349.655 -5.66398 348.139 -3.18301 346.113 -1.1785C344.589 0.306205 342.681 1.31299 340.616 1.72305C341.224 0.884194 341.613 -0.0994366 341.748 -1.13516C341.882 -2.17087 341.757 -3.22457 341.384 -4.19696C341.135 -4.96221 340.813 -5.76996 341.529 -6.32264C341.99 -6.52241 342.47 -6.67548 342.96 -6.77966C343.965 -7.15991 344.878 -7.75812 345.636 -8.53334C346.237 -9.25518 346.584 -10.162 346.624 -11.1095C346.663 -12.057 346.392 -12.9909 345.854 -13.7625C345.342 -14.4609 344.705 -15.0526 343.977 -15.5056C343.178 -16.1114 342.307 -16.9298 343.168 -17.9288C343.551 -18.3752 344.63 -18.524 345.17 -18.7578C346.964 -19.5337 348.603 -20.8835 348.769 -23.0092C348.945 -25.3793 346.943 -27.5794 345.242 -28.8973C344.65 -29.2212 344.105 -29.6291 343.624 -30.109C343.199 -30.7041 343.458 -30.9486 343.676 -31.5969C344.175 -32.7883 344.333 -34.1006 344.132 -35.3806C343.531 -37.7508 341.404 -38.6435 339.402 -39.5257C338.5 -39.919 337.276 -40.3228 336.944 -41.4176C336.876 -41.95 336.835 -42.4857 336.82 -43.0224C336.597 -44.0761 336.052 -45.0294 335.264 -45.7433C335.039 -45.9493 334.8 -46.1376 334.548 -46.3066C336.501 -46.5404 338.481 -46.3485 340.357 -45.7433C343.107 -44.8344 345.447 -42.9451 346.954 -40.4185L346.964 -40.4185Z" fill="url(#paint0_linear_207_91)"/>
</g>
<rect width="376" height="370" transform="matrix(1 0 0 -1 80 97)" fill="url(#paint1_linear_207_91)"/>
</g>
<path opacity="0.21" d="M305.884 399.594C223.094 447.393 103.841 415.48 56.7338 333.888C9.62677 252.296 8.62086 171.671 91.4117 123.872C174.203 76.0726 235.201 105.297 282.308 186.889C329.415 268.481 388.675 351.795 305.884 399.594Z" fill="#FF0000"/>
<path opacity="0.21" d="M328.651 151.94C316.813 141.707 315.889 120.92 326.565 108.569C337.241 96.2186 350.095 91.2213 361.933 101.455C373.771 111.688 372.179 123.094 361.503 135.445C350.827 147.796 340.49 162.173 328.651 151.94Z" fill="#FF0000"/>
<path opacity="0.21" d="M361.79 393.124C372.855 404.189 368.689 428.569 353.279 443.978C337.87 459.388 317.415 461.646 310.737 455.26C304.059 448.874 304.377 430.644 319.787 415.235C335.196 399.825 350.725 382.059 361.79 393.124Z" fill="url(#paint2_linear_207_91)"/>
<path opacity="0.21" d="M-0.130309 333.265C14.9847 329.215 34.0148 345.012 39.655 366.062C45.2953 387.112 37.024 405.956 28.1545 408.546C19.285 411.136 3.65664 401.746 -1.98364 380.696C-7.62391 359.646 -15.2453 337.315 -0.130309 333.265Z" fill="#FF0000"/>
<path d="M81.2937 181.404L130.076 255.174C130.076 255.174 157.692 253.482 168.181 238.315L142.464 154.223C142.464 154.223 100.26 177.454 81.2937 181.404Z" fill="#BA5F49"/>
<g style="mix-blend-mode:multiply" opacity="0.75">
<path d="M145.779 164.785L142.532 154.171C142.532 154.171 100.327 177.402 81.3609 181.352L91.7288 197.035C113.938 191.438 126.664 184.012 145.779 164.785Z" fill="#8F5243"/>
</g>
<path d="M148.887 199.888C144.627 190.881 133.598 187.161 124.253 191.578C114.908 195.995 110.785 206.877 115.045 215.884C119.305 224.891 130.334 228.612 139.679 224.194C149.024 219.777 153.146 208.895 148.887 199.888Z" fill="#CCB1B1"/>
<path d="M144.698 201.416C146.203 204.804 146.304 208.65 144.981 212.111C143.657 215.573 141.015 218.368 137.634 219.886C135.998 220.743 134.205 221.26 132.363 221.405C130.521 221.551 128.668 221.322 126.917 220.732C125.165 220.142 123.551 219.204 122.171 217.974C120.791 216.745 119.674 215.248 118.888 213.575C118.102 211.903 117.662 210.088 117.595 208.241C117.528 206.395 117.836 204.553 118.5 202.829C119.163 201.105 120.169 199.533 121.457 198.208C122.744 196.883 124.287 195.832 125.991 195.12C129.307 193.484 133.136 193.228 136.641 194.408C140.147 195.588 143.043 198.107 144.698 201.416Z" fill="#F0E1DD"/>
<path d="M128.081 213.563C127.788 212.518 127.807 211.411 128.136 210.377C128.464 209.343 129.088 208.427 129.93 207.744C130.932 206.697 132.317 206.11 133.312 205.123C134.306 204.136 134.071 202.612 133.882 201.216C133.704 200.038 133.459 198.872 133.15 197.722C129.952 197.926 126.61 200.841 125.071 205.174C123.183 210.455 124.668 215.829 128.404 217.157C128.884 217.325 129.386 217.419 129.893 217.438C129.142 216.221 128.533 214.92 128.081 213.563Z" fill="#8F4B46"/>
<path d="M135.211 197.938C135.44 198.862 135.639 199.817 135.809 200.805C136.075 201.709 136.131 202.661 135.974 203.59C135.817 204.518 135.45 205.399 134.902 206.164C133.435 207.762 129.883 209.08 129.749 211.701C129.928 213.682 130.712 215.561 131.997 217.08C133.56 216.458 134.963 215.492 136.102 214.253C137.241 213.015 138.086 211.535 138.574 209.925C140.415 204.654 138.943 199.297 135.211 197.938Z" fill="#8F4B46"/>
<g style="mix-blend-mode:screen">
<path d="M157.81 242.426C159.145 241.391 160.768 240.133 162.425 238.849C157.419 225.022 141.158 179.981 135.648 164.108C133.036 165.565 130.341 166.867 127.576 168.008C133.304 183.36 149.977 226.836 156.95 242.957C157.286 242.832 157.552 242.652 157.81 242.426Z" fill="#8F524D"/>
</g>
<g style="mix-blend-mode:multiply" opacity="0.55">
<path d="M123.668 211.92C115.465 204.198 108.668 194.764 101.349 186.195C99.6395 184.284 98.0669 182.255 96.6433 180.122C93.0907 181.517 89.4364 182.638 85.7125 183.476L130.381 251.31C130.381 251.31 155.329 249.98 164.798 236.117L161.913 226.737C148.082 227.71 134.517 222.113 123.668 211.92Z" fill="#8B4B3A"/>
</g>
<g style="mix-blend-mode:multiply" opacity="0.55">
<path d="M103.884 177.732C101.254 178.877 95.6693 180.471 93.2025 181.408C100.84 194.441 135.096 249.118 136.071 250.69C139.219 250.146 142.329 249.4 145.381 248.457C142.541 244.024 105.523 181.173 103.884 177.732Z" fill="#A75640"/>
</g>
<g style="mix-blend-mode:screen">
<path d="M143.908 186.813C144.176 187.722 144.171 188.69 143.891 189.596C143.612 190.502 143.071 191.305 142.337 191.905C141.603 192.504 140.709 192.874 139.765 192.966C138.822 193.059 137.872 192.871 137.035 192.426C136.198 191.982 135.51 191.299 135.059 190.465C134.607 189.632 134.412 188.683 134.498 187.739C134.583 186.795 134.945 185.897 135.539 185.158C136.133 184.42 136.931 183.873 137.835 183.586C138.445 183.399 139.087 183.333 139.722 183.394C140.358 183.455 140.976 183.64 141.54 183.94C142.104 184.24 142.603 184.648 143.01 185.141C143.416 185.634 143.721 186.202 143.908 186.813Z" fill="#B28784"/>
</g>
<g style="mix-blend-mode:screen">
<path d="M143.313 178.014C143.444 178.547 143.416 179.108 143.233 179.626C143.05 180.144 142.72 180.597 142.283 180.93C141.846 181.264 141.321 181.462 140.773 181.501C140.225 181.54 139.677 181.419 139.197 181.151C138.717 180.884 138.325 180.482 138.07 179.995C137.814 179.509 137.706 178.958 137.759 178.411C137.812 177.864 138.023 177.345 138.367 176.916C138.711 176.487 139.172 176.169 139.694 175.998C140.064 175.891 140.452 175.857 140.835 175.901C141.217 175.944 141.588 176.063 141.924 176.25C142.261 176.438 142.557 176.69 142.795 176.993C143.034 177.295 143.21 177.642 143.313 178.014Z" fill="#B28784"/>
</g>
<path d="M74.6918 176.936L74.9128 188.569C74.9128 188.569 95.1199 189.154 118.691 175.678C142.263 162.203 150.709 154.141 150.709 154.141L142.138 144.025C142.138 144.025 119.677 141.125 74.6918 176.936Z" fill="#F2F2F2"/>
<g style="mix-blend-mode:screen" opacity="0.9">
<path d="M83.8115 182.594C84.1405 178.483 84.6934 174.394 85.4677 170.345L85.7441 168.641C82.2711 171.143 78.5631 173.936 74.7309 176.987L74.9126 188.57C77.6536 188.567 80.3906 188.364 83.1018 187.963C83.2478 186.162 83.4847 184.37 83.8115 182.594Z" fill="#F2F2F2"/>
</g>
<g style="mix-blend-mode:screen" opacity="0.9">
<path d="M123.728 172.75C143.473 161.076 150.675 154.168 150.675 154.168L142.137 144.025C138.191 143.861 134.245 144.365 130.466 145.516C128.76 154.663 125.935 163.621 123.728 172.75Z" fill="#F2F2F2"/>
</g>
<path d="M74.6918 176.936L74.9129 188.569C74.9129 188.569 95.12 189.154 118.691 175.679C142.263 162.204 150.709 154.142 150.709 154.142L142.138 144.025C142.138 144.025 123.448 166.523 74.6918 176.936Z" fill="#DEDEDE"/>
<g style="mix-blend-mode:screen" opacity="0.65">
<path d="M131.816 153.053C129.534 154.822 126.73 156.616 123.513 158.54C124.729 162.065 126.319 165.653 127.169 168.216C127.385 168.914 127.619 169.6 127.888 170.366C132.465 167.577 136.221 165.126 139.297 162.986C136.572 159.856 134.072 156.537 131.816 153.053Z" fill="#C7CBC9"/>
</g>
<g style="mix-blend-mode:multiply" opacity="0.35">
<path d="M104.454 167.923C96.4426 171.144 88.2052 173.772 79.8083 175.787C79.8545 176.265 79.9007 176.744 79.9168 177.219C80.0877 180.931 79.8984 184.597 80.377 188.288C91.688 187.07 102.697 183.88 112.906 178.863C108.938 176.271 105.961 172.416 104.454 167.923Z" fill="#8F838D"/>
</g>
<path d="M82.1418 160.955L83.8023 172.421C94.0886 170.093 103.984 166.291 113.182 161.132C128.576 152.505 132.631 147.819 132.631 147.819L126.33 139.165C126.33 139.165 114.495 138.211 97.7605 148.147C91.9238 151.584 86.655 155.905 82.1418 160.955Z" fill="#F2F2F2"/>
<g style="mix-blend-mode:screen" opacity="0.9">
<path d="M126.011 142.769C126.295 142.332 126.552 141.862 126.81 141.391C126.98 141.038 127.201 140.711 127.466 140.423L126.404 139.052C124.078 138.98 121.75 139.175 119.469 139.635C119.361 141.208 119.22 142.806 119.04 144.354C118.859 145.902 118.66 147.356 118.412 148.956C121.072 147.056 123.61 144.989 126.011 142.769Z" fill="#F2F2F2"/>
</g>
<g style="mix-blend-mode:screen" opacity="0.9">
<path d="M107.032 155.501C108.146 155.017 109.236 154.469 110.311 153.935C109.716 153.103 109.429 152.091 109.499 151.071C109.638 148.039 110.179 144.966 110.572 141.982C109.232 142.452 107.82 143.004 106.417 143.604C105.45 147.873 104.823 152.231 104.152 156.568C105.055 156.302 106.05 155.91 107.032 155.501Z" fill="#F2F2F2"/>
</g>
<g style="mix-blend-mode:screen" opacity="0.9">
<path d="M86.954 161.368C87.1376 160.721 87.3412 160.075 87.5648 159.433C87.9914 157.748 88.4348 156.051 88.9045 154.388C86.4718 156.385 84.2098 158.582 82.1419 160.955L82.3905 162.847C83.8924 162.306 85.4035 161.812 86.954 161.368Z" fill="#F2F2F2"/>
</g>
<path d="M108.632 150.931C100.356 155.291 91.5517 158.565 82.4373 160.673L82.116 160.922L83.8027 172.421C94.089 170.093 103.984 166.291 113.182 161.132C128.577 152.505 132.631 147.819 132.631 147.819L126.422 139.284C120.869 143.714 114.913 147.613 108.632 150.931Z" fill="#DEDEDE"/>
<g style="mix-blend-mode:screen" opacity="0.65">
<path d="M119.947 144.057C118.178 145.266 116.51 146.396 114.759 147.454C116.162 150.835 118.011 154.059 119.623 157.222C123.475 154.86 126.285 152.899 128.289 151.4C125.647 148.899 122.763 146.504 119.947 144.057Z" fill="#C7CBC9"/>
</g>
<g style="mix-blend-mode:multiply" opacity="0.35">
<path d="M104.108 157.28C103.335 156.282 102.535 155.25 101.82 154.153C95.6208 156.984 89.1413 159.156 82.488 160.633L82.1667 160.882L83.8027 172.421C92.6738 170.421 101.258 167.316 109.355 163.177C107.44 161.366 105.685 159.393 104.108 157.28Z" fill="#8F838D"/>
</g>
<path d="M88.6098 157.08C93.1734 153.341 98.108 150.079 103.336 147.346C108.093 145.191 113.056 143.522 118.148 142.365C113.675 145.548 109 148.438 104.153 151.018C99.1271 153.416 93.9322 155.442 88.6098 157.08Z" fill="#A1A8A6"/>
<g style="mix-blend-mode:multiply">
<path d="M98.415 149.724C97.5718 150.242 96.803 151.136 95.9467 151.637C94.3838 153.004 92.9311 154.492 91.6021 156.087C93.7384 155.352 96.7421 154.27 100.324 152.712C99.8813 149.102 98.9125 149.528 98.415 149.724Z" fill="#A1A8A6"/>
</g>
<path d="M94.1341 154.396C93.618 154.498 93.1009 154.005 92.8542 153.303C92.135 151.153 91.084 147.527 91.5933 146.997C91.9519 145.609 99.3444 149.491 99.3065 149.791C99.1663 150.658 98.7957 152.624 98.2792 152.97C96.9691 153.632 95.5745 154.112 94.1341 154.396Z" fill="#DEDEDE"/>
<g style="mix-blend-mode:screen" opacity="0.65">
<path d="M92.1616 146.719C94.0936 147.117 96.1973 149.412 98.2447 152.997C98.7688 152.591 99.1488 150.672 99.272 149.818C99.3438 149.492 93.2522 146.415 92.1616 146.719Z" fill="#DEDEDE"/>
</g>
<path d="M307.797 177.712C301.865 171.232 260.339 172.539 240.229 187.487C233.372 192.578 229.344 200.066 223.902 205.647C197.098 233.664 206.622 253.947 228.8 265.9C241.318 272.625 267.496 272.271 289.701 259.665C311.906 247.059 320.124 236.141 322.356 223.481C326.682 196.308 307.797 177.712 307.797 177.712ZM293.402 224.788C290.082 224.08 285.238 222.473 280.258 221.548C280.104 221.561 279.95 221.561 279.796 221.548C276.586 221.661 273.386 221.98 270.217 222.501C268.955 223.483 267.638 224.392 266.271 225.223C263.622 226.266 261.367 228.113 259.822 230.505C259.277 231.426 258.555 232.231 257.699 232.874C256.56 234.66 255.551 236.525 254.679 238.455C250.135 248.502 245.753 233.664 241.291 230.097C238.896 226.122 261.482 201.4 275.551 203.796C277.397 203.831 279.228 204.124 280.993 204.667L281.565 204.885C286.708 205.62 291.824 206.9 296.885 207.989C307.688 210.385 304.178 227.238 293.402 224.869V224.788Z" fill="#EE9843"/>
<g style="mix-blend-mode:multiply" opacity="0.65">
<path d="M306.872 177.032C298.409 171.368 259.523 173.138 240.23 187.487C233.372 192.578 229.345 200.066 223.902 205.647C202.949 227.428 204.228 244.69 216.283 256.833L217.399 257.814C222.841 258.712 228.882 257.814 233.508 258.195C241.672 259.093 249.836 267.615 257.999 263.368C265.7 259.338 271.333 259.257 279.769 258.467C287.361 257.732 289.756 248.72 297.294 246.896C300.341 246.188 306.655 246.378 307.008 241.995C307.015 239.902 307.489 237.837 308.396 235.95C311.934 229.933 321.077 230.287 318.846 222.119C316.941 215.285 318.056 207.907 321.567 203.877C319.227 189.148 309.702 180.19 306.872 177.032ZM293.266 224.869C289.946 224.161 285.103 222.555 280.123 221.629C279.969 221.642 279.814 221.642 279.66 221.629C276.45 221.743 273.251 222.061 270.081 222.582C268.82 223.565 267.502 224.474 266.136 225.305C263.487 226.347 261.231 228.194 259.686 230.587C259.141 231.508 258.42 232.313 257.564 232.956C256.425 234.741 255.415 236.607 254.543 238.537C252.339 243.383 250.217 242.458 248.067 239.789C245.128 238.047 242.216 230.723 239.25 228.354C236.855 224.406 259.441 199.657 273.51 202.053C275.355 202.101 277.185 202.394 278.953 202.924C279.159 202.989 279.359 203.071 279.551 203.169C284.694 203.877 289.81 205.157 294.872 206.273C296.844 206.638 298.604 207.737 299.797 209.35C306.818 213.951 303.008 226.993 293.402 224.869H293.266Z" fill="#D98B43"/>
</g>
<path d="M215.63 240.334C216.283 241.015 216.936 241.695 217.616 242.349L219.712 241.478C225.535 239.082 230.76 235.433 236.611 233.037L242.053 230.832C241.865 230.62 241.655 230.429 241.427 230.26C239.032 226.285 261.619 201.563 275.687 203.959C277.533 203.994 279.365 204.287 281.13 204.83L281.701 205.048C284.64 205.484 287.579 206.083 290.518 206.709C292.967 203.605 295.389 200.392 298.056 197.37C302.216 192.125 306.842 187.268 311.879 182.858C310.621 181.064 309.258 179.346 307.798 177.712C301.865 171.232 260.34 172.539 240.23 187.487C233.372 192.578 229.345 200.066 223.902 205.647C212.528 217.518 208.119 228.436 208.473 237.965C209.768 237.648 211.126 237.702 212.392 238.121C213.657 238.54 214.779 239.307 215.63 240.334Z" fill="#822A00"/>
<path d="M319.173 223.835C318.737 220.813 315.172 215.531 315.635 212.672C316.098 209.813 319.798 207.227 321.077 204.804C323.499 200.529 321.077 195.519 319.581 191.19C313.676 174.146 300.532 162.384 270.191 164.181C254.489 165.08 223.93 172.894 208.038 202.299C198.514 219.887 201.153 232.466 209.725 244.691C212.964 249.319 222.542 257.188 229.4 256.48C232.747 256.099 234.434 254.247 238.162 255.01C240.969 255.657 243.593 256.932 245.836 258.74C251.85 263.123 256.04 262.225 262.544 258.74C266.136 256.752 267.524 255.445 271.633 256.344C274.581 257.147 277.709 256.985 280.559 255.881C286.981 253.158 285.756 243.438 294.818 244.99C298.11 245.508 301.321 246.379 303.662 243.357C306.002 240.335 303.335 237.312 304.913 234.29C308.26 227.974 320.751 234.454 319.173 223.835ZM239.278 209.051C250.788 184.71 272.966 195.791 275.062 200.229C283.361 217.518 227.903 233.228 239.278 209.051Z" fill="#A73D22"/>
<g style="mix-blend-mode:screen" opacity="0.75">
<path d="M232.665 210.14C233.613 202.442 236.415 195.089 240.828 188.712C243.099 185.54 246.16 183.016 249.707 181.392C253.253 179.768 257.163 179.101 261.047 179.455C271.279 180.953 278.708 191.326 289.021 192.252C291.135 192.503 293.278 192.221 295.255 191.431C297.232 190.642 298.981 189.37 300.341 187.732C301.635 186.043 302.285 183.948 302.175 181.823C302.065 179.697 301.203 177.681 299.743 176.134C298.365 174.995 296.773 174.143 295.062 173.629C280.697 168.398 264.953 168.376 250.572 173.565C236.192 178.754 224.086 188.826 216.365 202.026C213.359 206.391 211.964 211.666 212.419 216.947C213.29 222.12 218.269 226.857 223.304 225.768C224.859 225.325 226.291 224.53 227.49 223.444C228.689 222.358 229.621 221.011 230.215 219.506C231.43 216.502 232.253 213.354 232.665 210.14Z" fill="#B1523A"/>
</g>
<g style="mix-blend-mode:screen" opacity="0.75">
<path d="M271.496 225.305C262.026 229.743 251.06 229.444 240.638 230.342C238.078 230.456 235.56 231.037 233.209 232.057C232.04 232.582 231.023 233.393 230.252 234.417C229.482 235.44 228.982 236.642 228.8 237.911C228.474 242.349 233.263 245.453 237.617 246.351C246.38 248.121 255.36 245.208 263.768 242.186C271.928 239.623 279.701 235.959 286.871 231.295C294.079 226.524 299.213 219.199 301.239 210.793C301.833 208.336 301.681 205.758 300.804 203.387C299.797 201.073 297.402 198.677 294.98 199.358C286.272 201.699 286.871 218.117 271.496 225.305Z" fill="#B1523A"/>
</g>
<path d="M286.163 174.99C285.343 174.939 284.527 175.139 283.823 175.562L278.816 177.931L280.258 180.49C282.749 178.843 285.632 177.885 288.612 177.713C288.068 176.542 287.388 175.29 286.163 174.99Z" fill="#CC3131"/>
<path d="M313.702 196.935C312.883 196.857 312.062 197.048 311.362 197.479L306.354 199.848L307.797 202.408C310.271 200.727 313.142 199.723 316.124 199.494C315.607 198.405 314.926 197.153 313.702 196.935Z" fill="#CC3131"/>
<path d="M311.852 206.437L306.219 204.613C303.758 207.426 301.132 210.089 298.355 212.591C300.813 212.998 303.095 214.126 304.913 215.831C306.815 212.416 309.147 209.259 311.852 206.437Z" fill="url(#paint3_linear_207_91)"/>
<path d="M221.698 222.338L216.065 220.541C213.611 223.351 210.984 226.006 208.201 228.491C210.663 228.878 212.955 229.987 214.786 231.677C216.691 228.287 219.013 225.149 221.698 222.338Z" fill="url(#paint4_linear_207_91)"/>
<path d="M278.381 233.828C277.595 233.412 276.71 233.224 275.823 233.283H270.707C270.272 235.107 269.809 236.904 269.347 238.729C272.819 237.641 276.474 237.262 280.095 237.612C280.104 236.894 279.955 236.183 279.659 235.529C279.363 234.875 278.927 234.294 278.381 233.828Z" fill="#FFCC00"/>
<path d="M291.361 200.529C290.525 200.09 289.58 199.901 288.64 199.984H283.551L282.163 205.429C285.614 204.376 289.243 204.034 292.83 204.422C292.88 203.705 292.775 202.986 292.521 202.314C292.268 201.642 291.872 201.033 291.361 200.529Z" fill="#FFCC00"/>
<path d="M223.63 207.935C223.63 209.46 223.875 210.984 223.984 212.536L234.488 210.195C233.892 209.048 233.664 207.746 233.835 206.465C230.498 207.331 227.076 207.824 223.63 207.935Z" fill="#14B661"/>
<path d="M241.046 186.071L232.61 189.692C232.285 191.121 232.22 192.597 232.42 194.049C235.474 192.183 238.796 190.796 242.27 189.937C241.505 188.79 241.081 187.45 241.046 186.071Z" fill="#CC3131"/>
<path d="M255.605 186.916L259.768 185.119C259.079 184.729 258.48 184.197 258.011 183.559C257.542 182.921 257.213 182.191 257.047 181.416C256.753 179.882 256.026 178.465 254.951 177.332L251.768 178.04C253.074 181.008 254.298 183.948 255.605 186.916Z" fill="#FFCC00"/>
<path d="M232.61 223.236L236.801 221.439C236.105 221.058 235.501 220.529 235.03 219.889C234.56 219.249 234.236 218.515 234.079 217.736C233.786 216.203 233.058 214.785 231.984 213.652L228.8 214.36L232.61 223.236Z" fill="#FFCC00"/>
<path d="M275.823 186.534L273.102 185.118L267.034 189.856L271.551 191.87L275.823 186.534Z" fill="url(#paint5_linear_207_91)"/>
<path d="M248.285 245.208L245.563 243.792L239.495 248.502L244.04 250.517L248.285 245.208Z" fill="url(#paint6_linear_207_91)"/>
<path d="M292.585 187.215C292.517 186.811 292.334 186.435 292.06 186.131C291.785 185.827 291.429 185.608 291.034 185.5C290.637 185.392 290.215 185.416 289.832 185.568C289.45 185.721 289.127 185.993 288.911 186.344C288.788 186.588 288.688 186.843 288.612 187.106C287.905 189.675 287.849 192.379 288.449 194.975C289.744 194.358 291.196 194.149 292.612 194.376C292.031 193.01 291.888 191.497 292.204 190.047C292.528 189.14 292.658 188.175 292.585 187.215Z" fill="#14B661"/>
<path d="M272.803 241.369C272.721 240.967 272.53 240.595 272.252 240.292C271.974 239.99 271.619 239.77 271.225 239.654C270.829 239.56 270.412 239.593 270.036 239.75C269.66 239.906 269.342 240.178 269.13 240.525C268.975 240.754 268.873 241.015 268.83 241.288C268.124 243.856 268.067 246.561 268.667 249.156C269.952 248.507 271.409 248.278 272.831 248.503C272.249 247.128 272.106 245.606 272.422 244.147C272.73 243.255 272.859 242.311 272.803 241.369Z" fill="#14B661"/>
<path d="M240.611 238.238L244.747 238.864C245.182 236.141 245.618 233.555 246.08 230.887L242.869 232.166C242.135 234.127 241.373 236.196 240.611 238.238Z" fill="#CC3131"/>
<path d="M218.651 234.671C218.885 234.82 219.166 234.878 219.44 234.835L224.637 234.426C224.338 231.248 224.69 228.043 225.671 225.006C224.17 225.795 222.52 226.259 220.828 226.367C220.12 228.79 219.385 231.214 218.678 233.637C218.487 233.991 218.406 234.426 218.651 234.671Z" fill="#FFCC00"/>
<path d="M300.858 227.457C300.967 227.534 301.091 227.589 301.222 227.617C301.353 227.645 301.489 227.646 301.62 227.62L306.818 227.211C306.52 224.039 306.843 220.839 307.77 217.791C306.28 218.583 304.638 219.047 302.953 219.152C302.246 221.576 301.511 224.026 300.776 226.449C300.695 226.721 300.613 227.211 300.858 227.457Z" fill="#FFCC00"/>
<path d="M294.981 232.602C294.959 229.782 295.563 226.992 296.749 224.434H292.559L289.837 231.948L294.981 232.602Z" fill="#14B661"/>
<path d="M254.108 251.525L258.816 251.743C259.143 248.867 259.717 246.025 260.53 243.248C260.28 243.061 259.985 242.942 259.675 242.904C259.365 242.866 259.05 242.909 258.762 243.03L254.108 251.525Z" fill="#6BC3C3"/>
<path d="M211.575 210.712L209.344 218.063L213.507 218.39L214.868 210.222L211.575 210.712Z" fill="#CC3131"/>
<path d="M223.958 196.309C223.035 196.431 222.161 196.797 221.427 197.37L217.427 200.093L220.148 203.442C222.009 201.063 224.483 199.237 227.305 198.16C226.467 197.138 225.269 196.475 223.958 196.309Z" fill="#6BC3C3"/>
<path d="M235.739 231.622C234.816 231.744 233.942 232.111 233.208 232.684L229.208 235.407L231.929 238.756C233.839 236.319 236.38 234.455 239.276 233.365C238.368 232.346 237.1 231.721 235.739 231.622Z" fill="#6BC3C3"/>
<path d="M305.948 192.279C306.392 192.449 306.86 192.55 307.335 192.579C307.686 192.564 308.027 192.457 308.323 192.267C308.619 192.078 308.86 191.813 309.02 191.5C309.181 191.188 309.256 190.838 309.237 190.487C309.218 190.136 309.107 189.796 308.914 189.502C306.548 188.625 304.286 187.493 302.165 186.126C301.049 187.324 299.934 188.522 298.845 189.747L305.948 192.279Z" fill="#6BC3C3"/>
<path d="M284.775 227.946C285.214 228.136 285.685 228.238 286.163 228.246C286.518 228.24 286.864 228.138 287.166 227.95C287.467 227.763 287.712 227.497 287.874 227.181C288.036 226.865 288.109 226.511 288.086 226.157C288.063 225.802 287.943 225.461 287.741 225.169C285.378 224.287 283.116 223.155 280.993 221.793L277.673 225.414L284.775 227.946Z" fill="#6BC3C3"/>
<path d="M273.21 183.784C273.649 183.976 274.12 184.087 274.598 184.111C274.941 184.109 275.278 184.021 275.577 183.854C275.877 183.688 276.13 183.448 276.312 183.158C276.492 182.853 276.587 182.505 276.587 182.151C276.587 181.797 276.492 181.449 276.312 181.143C273.903 180.247 271.595 179.097 269.428 177.713L266.108 181.252L273.21 183.784Z" fill="#6BC3C3"/>
<path d="M243.414 200.965C243.85 201.16 244.323 201.262 244.801 201.264C245.156 201.256 245.502 201.154 245.803 200.967C246.105 200.78 246.351 200.516 246.516 200.202C246.69 199.895 246.781 199.548 246.781 199.195C246.781 198.842 246.69 198.495 246.516 198.188C244.15 197.311 241.888 196.179 239.767 194.812L236.447 198.433L243.414 200.965Z" fill="#6BC3C3"/>
<path d="M270.679 170.906C268.664 172.163 266.414 172.997 264.067 173.357C264.23 174.555 264.393 175.753 264.529 176.951C267.179 175.497 270.032 174.451 272.992 173.847C271.908 173.16 271.091 172.122 270.679 170.906Z" fill="#14B661"/>
<path d="M252.883 227.102C251.595 227.018 250.34 226.662 249.2 226.056C248.06 225.451 247.061 224.61 246.271 223.59L243.141 226.912C246.06 227.946 248.81 229.405 251.305 231.241C251.876 229.879 252.393 228.491 252.883 227.102Z" fill="url(#paint7_linear_207_91)"/>
<path d="M246.978 180.082C245.691 179.994 244.437 179.637 243.297 179.031C242.158 178.426 241.159 177.587 240.366 176.569L237.236 179.864C240.146 180.931 242.893 182.397 245.4 184.22C245.89 182.832 246.434 181.47 246.978 180.082Z" fill="url(#paint8_linear_207_91)"/>
<path d="M293.021 239.572C291.735 239.481 290.482 239.122 289.343 238.517C288.204 237.912 287.204 237.075 286.409 236.06L283.279 239.354C286.191 240.415 288.94 241.882 291.443 243.71L293.021 239.572Z" fill="url(#paint9_linear_207_91)"/>
<path d="M280.911 220.078C281.122 220.338 281.394 220.541 281.703 220.669C282.012 220.798 282.347 220.847 282.68 220.813C283.014 220.768 283.33 220.636 283.598 220.431C283.865 220.225 284.074 219.954 284.204 219.642C284.041 217.355 283.905 215.068 283.741 212.781C282.593 213.101 281.488 213.559 280.449 214.143C279.891 215.794 279.891 217.583 280.449 219.234C280.574 219.53 280.729 219.813 280.911 220.078Z" fill="#CC3131"/>
<path d="M264.775 223.291C264.53 222.964 263.986 223.046 263.605 223.291L260.666 223.999C260.04 226.531 259.442 229.063 258.816 231.622H262.734C263.442 229.172 264.122 226.694 264.803 224.216C264.875 224.072 264.91 223.912 264.905 223.75C264.9 223.589 264.856 223.431 264.775 223.291Z" fill="#14B661"/>
<path d="M223.604 245.78C226.69 245.574 229.789 245.934 232.747 246.842C233.046 245.153 233.373 243.465 233.699 241.777C230.983 242.021 228.251 242.021 225.536 241.777C224.882 243.22 224.229 244.5 223.604 245.78Z" fill="#14B661"/>
<path d="M188.174 281.4C183.225 284.763 182.769 292.29 178.86 296.82C174.952 301.351 168.331 302.455 165.442 307.488C162.553 312.521 165.186 319.585 165.554 325.749C165.369 331.724 164.315 337.64 162.425 343.311C161.062 349.047 160.546 355.437 163.709 360.137C165.64 362.656 168.24 364.581 171.212 365.693C174.184 366.805 177.408 367.059 180.518 366.427C186.839 365.023 192.848 362.466 198.244 358.885C214.239 350.2 229.495 340.216 243.857 329.033C247.217 326.698 250.044 323.675 252.15 320.165C253.139 318.427 253.61 316.442 253.505 314.445C253.4 312.447 252.725 310.522 251.559 308.898C249.417 306.547 245.951 305.954 243.535 303.892C239.151 300.186 238.691 293.998 233.208 290.955C228.466 288.939 223.352 287.947 218.2 288.046C214.994 287.905 211.827 287.283 208.806 286.203C205.836 284.983 203.329 282.766 200.199 281.405C198.355 280.396 196.288 279.868 194.187 279.867C192.086 279.866 190.018 280.393 188.174 281.4Z" fill="#D2923D"/>
<g style="mix-blend-mode:screen" opacity="0.32">
<path d="M185.025 324.771C193.961 321.283 191.743 315.384 195.374 308.308C197.32 304.183 200.408 300.703 204.272 298.282C208.268 295.58 213.094 294.388 217.886 294.919C223.324 295.906 227.457 299.809 232.737 301.017C235.391 301.564 238.148 301.299 240.65 300.257C238.547 296.894 237.192 293.072 233.264 290.872C228.523 288.855 223.408 287.864 218.256 287.962C215.05 287.822 211.884 287.2 208.862 286.12C205.892 284.9 203.386 282.683 200.256 281.322C198.408 280.337 196.343 279.83 194.249 279.848C192.155 279.866 190.098 280.408 188.267 281.425C183.319 284.789 182.862 292.316 178.954 296.846C175.045 301.376 168.425 302.481 165.536 307.514C162.647 312.547 164.871 318.546 165.516 324.289C171.714 326.953 178.701 327.126 185.025 324.771Z" fill="#A24B27"/>
</g>
<g style="mix-blend-mode:multiply" opacity="0.55">
<path d="M171.991 334.486C177.484 332.916 186.52 330.905 186.511 324.012C183.216 327.359 178.934 329.558 174.296 330.286C171.148 330.482 168.039 329.501 165.572 327.534C165.426 330.744 164.921 333.926 164.066 337.023C166.618 336.351 169.261 335.209 171.991 334.486Z" fill="#B9866E"/>
</g>
<g style="mix-blend-mode:multiply" opacity="0.55">
<path d="M193.171 301.358C194.533 300.421 195.958 299.578 197.435 298.834C200.851 297.79 204.177 296.471 207.382 294.89C209.859 292.895 211.712 290.231 212.721 287.214C211.358 286.982 210.019 286.626 208.721 286.148C207.724 285.709 206.758 285.198 205.833 284.621C205.03 287.137 203.872 289.526 202.395 291.716C199.836 295.386 194.208 297.217 193.171 301.358Z" fill="#B9866E"/>
</g>
<g style="mix-blend-mode:multiply" opacity="0.55">
<path d="M223.21 319.216C218.267 321.196 212.526 319.37 210.318 326.299C209.61 329.197 208.119 331.845 206.006 333.952C205.614 334.31 205.161 334.65 204.739 334.999C211.13 335.746 215.339 327.735 219.931 323.98C222.684 322.206 225.116 319.978 227.123 317.39C225.852 318.068 224.546 318.678 223.21 319.216Z" fill="#B9866E"/>
</g>
<g style="mix-blend-mode:multiply" opacity="0.55">
<path d="M216.002 303.351C215.935 303.553 215.881 303.759 215.838 303.967C218.283 303.048 220.82 302.398 223.406 302.026C228.658 301.088 233.439 298.399 236.97 294.397C235.946 292.944 234.615 291.734 233.07 290.853C230.891 289.734 228.535 288.995 226.107 288.669C225.901 291.378 224.902 293.967 223.235 296.113C221.153 298.855 217.529 300.461 216.002 303.351Z" fill="#B9866E"/>
</g>
<g style="mix-blend-mode:multiply" opacity="0.55">
<path d="M251.375 308.85C251.087 314.509 247.716 319.249 239.627 320.918C231.538 322.588 230.862 330.815 224.101 334.058C217.339 337.301 210.589 335.305 206.434 341.253C205.087 343.193 203.293 344.78 201.205 345.882C199.117 346.984 196.795 347.568 194.435 347.585C189.73 347.683 188.102 354.041 184.753 356.347C182.742 357.739 180.56 358.864 178.26 359.695C170.518 362.413 165.533 359.107 161.553 353.761C161.73 356.067 162.459 358.296 163.677 360.261C165.626 362.763 168.237 364.668 171.215 365.758C174.192 366.848 177.416 367.081 180.519 366.428C186.84 365.024 192.849 362.467 198.245 358.886C214.24 350.201 229.496 340.217 243.857 329.034C247.218 326.699 250.045 323.676 252.15 320.166C253.14 318.428 253.611 316.443 253.506 314.445C253.401 312.448 252.726 310.523 251.56 308.899L251.375 308.85Z" fill="#B9866E"/>
</g>
<path d="M243.717 323.623C243.247 326.003 243.055 327.963 240.828 329.15C238.449 330.439 235.658 330.738 233.061 329.982C232.702 333.184 233.281 335.217 229.868 336.649C227.49 337.646 224.916 338.088 222.341 337.941C221.726 340.249 221.993 341.474 219.758 342.692C216.967 344.28 213.718 344.869 210.549 344.36C208.214 350.035 203.696 353.513 198.839 351.956C198.405 353.738 197.285 355.276 195.722 356.235C192.703 357.919 189.207 358.543 185.793 358.008C182.379 363.033 180.193 365.55 174.585 365.573L217.107 402.25C234.084 398.21 249.687 389.739 262.328 377.701L250.263 321.312C248.448 322.876 246.111 323.701 243.717 323.623Z" fill="#BE4C1B"/>
<path d="M185.83 362.568C194.069 376.804 205.323 389.062 218.802 398.483C218.802 398.483 203.679 368.542 185.83 362.568Z" fill="#8F3300"/>
<path d="M200.143 355.963C200.143 355.963 208.126 380.672 228.468 395.222C228.468 395.222 216.073 363.7 200.143 355.963Z" fill="#8F3300"/>
<path d="M212.672 348.388C216.993 364.332 225.719 378.733 237.849 389.94C237.849 389.94 226.292 357.62 212.672 348.388Z" fill="#8F3300"/>
<path d="M224.571 342.062C224.571 342.062 229.079 368.681 244.977 384.949C244.977 384.949 236.926 353.694 224.571 342.062Z" fill="#8F3300"/>
<path d="M235.92 336.315C237.157 352.061 242.324 367.244 250.947 380.472C250.947 380.472 247.226 351.887 235.92 336.315Z" fill="#8F3300"/>
<path d="M245.537 329.283C245.919 345.519 249.598 361.506 256.349 376.273C256.349 376.273 255.16 343.748 245.537 329.283Z" fill="#8F3300"/>
<g style="mix-blend-mode:multiply" opacity="0.5">
<path d="M234.161 371.254C225.458 373.126 216.386 372.199 208.243 368.604C203.975 366.94 199.739 365.152 195.592 363.157C193.161 362.015 190.851 360.543 188.486 359.155C185.302 363.812 183.327 366.154 178.027 366.259L217.665 400.158C233.418 396.365 247.889 388.47 259.609 377.274L255.631 358.808C249.57 364.613 242.208 368.881 234.161 371.254Z" fill="#9E5838"/>
</g>
<g style="mix-blend-mode:screen" opacity="0.32">
<path d="M218.964 291.612C218.679 291.537 218.382 291.523 218.091 291.57C217.8 291.618 217.523 291.726 217.276 291.888L206.874 296.798C205.305 297.444 203.833 298.306 202.502 299.359C201.144 300.448 200.264 302.022 200.047 303.749C199.952 304.556 200.121 305.371 200.527 306.074C200.934 306.777 201.558 307.329 202.304 307.647C203.04 307.776 203.797 307.702 204.494 307.435C205.192 307.169 205.804 306.718 206.267 306.131C207.227 304.952 208.009 303.639 208.59 302.233C209.199 300.824 210.097 299.558 211.227 298.518C213.643 296.623 217.431 296.874 219.02 294C219.748 293.37 219.854 291.981 218.964 291.612Z" fill="#B27B60"/>
</g>
<g style="mix-blend-mode:screen" opacity="0.32">
<path d="M169.314 314.355L168.478 318.978C168.205 319.967 168.224 321.014 168.532 321.993C169.036 322.745 169.813 323.271 170.699 323.458C171.585 323.644 172.509 323.477 173.274 322.992C176.008 321.511 177.125 318.183 178.597 315.377C180.231 312.383 182.53 309.803 185.317 307.837C186.317 307.231 187.248 306.517 188.092 305.708C188.526 305.295 188.861 304.79 189.073 304.23C189.285 303.67 189.368 303.07 189.316 302.473C189.134 301.755 188.722 301.116 188.144 300.652C187.566 300.189 186.852 299.927 186.112 299.906C184.62 299.885 183.144 300.215 181.803 300.868C179.548 301.707 177.385 302.777 175.351 304.061C173.33 305.386 171.701 307.23 170.634 309.399C169.988 310.989 169.545 312.654 169.314 314.355Z" fill="#B27B60"/>
</g>
<g style="mix-blend-mode:screen" opacity="0.32">
<path d="M228.478 313.663C227.269 314.347 226.129 315.148 225.074 316.053C222.507 317.919 219.413 318.92 216.24 318.909C219.184 316.558 221.717 313.734 223.738 310.554C225.766 307.358 228.801 304.93 232.363 303.654C233.302 303.393 234.288 303.352 235.245 303.532C236.203 303.713 237.106 304.111 237.885 304.696C238.627 305.371 239.122 306.275 239.295 307.264C239.467 308.253 239.305 309.271 238.835 310.158C238.275 310.916 237.553 311.541 236.722 311.987C235.891 312.432 234.972 312.688 234.03 312.735C232.142 312.749 230.268 313.063 228.478 313.663Z" fill="#B27B60"/>
</g>
<g style="mix-blend-mode:screen" opacity="0.32">
<path d="M193.085 324.94C193.388 325.475 193.827 325.92 194.359 326.23C194.89 326.539 195.494 326.702 196.109 326.701C197.356 326.693 198.58 326.36 199.661 325.735C204.175 322.881 207.945 318.991 210.657 314.389C211.288 313.502 211.911 312.152 211.15 311.422C210.908 311.214 210.621 311.063 210.312 310.981C210.003 310.899 209.68 310.887 209.366 310.946C203.754 311.939 198.644 314.809 194.875 319.087C194.112 319.912 193.502 320.865 193.07 321.903C192.871 322.385 192.769 322.901 192.772 323.423C192.774 323.944 192.881 324.46 193.085 324.94Z" fill="#B27B60"/>
</g>
<g style="mix-blend-mode:screen" opacity="0.32">
<path d="M177.938 339.004C176.588 339.875 175.148 340.597 173.642 341.156C171.65 341.604 169.728 342.324 167.932 343.295C167.078 343.92 166.405 344.76 165.979 345.729C165.553 346.698 165.39 347.762 165.506 348.814C165.654 349.838 166.081 350.802 166.74 351.6C167.4 352.398 168.266 352.999 169.244 353.337C170.355 353.622 171.515 353.659 172.642 353.447C173.769 353.234 174.835 352.777 175.766 352.107C177.633 350.727 179.329 349.132 180.821 347.354C182.313 345.559 184.131 344.063 186.18 342.946C187.837 342.168 189.765 341.857 191.369 341.032C192.229 340.689 192.985 340.127 193.56 339.401C194.135 338.674 194.509 337.81 194.646 336.893C194.639 336.143 194.411 335.41 193.99 334.788C193.57 334.166 192.976 333.682 192.282 333.396C190.862 332.864 189.298 332.856 187.872 333.375C186.409 333.939 185.019 334.675 183.73 335.568C181.843 336.714 179.886 337.874 177.938 339.004Z" fill="#B27B60"/>
</g>
<path d="M197.978 287.77L197.362 287.606C197.048 287.327 196.672 287.126 196.267 287.018C195.861 286.91 195.435 286.898 195.024 286.983C194.209 287.203 193.452 287.598 192.805 288.139C191.61 289.034 190.581 290.133 189.766 291.385C189.409 291.819 189.174 292.341 189.084 292.896C188.994 293.451 189.053 294.02 189.254 294.545C189.43 294.804 189.666 295.017 189.942 295.165C190.218 295.313 190.526 295.392 190.839 295.396C191.459 295.416 192.075 295.299 192.644 295.052C194.257 294.486 195.727 293.572 196.949 292.375C197.786 291.623 198.346 290.611 198.538 289.501C198.523 288.442 199.003 287.878 197.978 287.77Z" fill="#652700"/>
<path d="M166.985 316.669C167.908 316.915 168.911 316.49 169.7 315.876C170.578 315.287 171.322 314.519 171.882 313.622C172.18 313.158 172.379 312.639 172.467 312.095C172.555 311.551 172.53 310.995 172.394 310.462C172.257 309.958 171.956 309.514 171.538 309.2C171.121 308.886 170.611 308.719 170.089 308.727C170.045 308.687 169.995 308.655 169.939 308.635C169.884 308.615 169.825 308.606 169.766 308.609C169.707 308.611 169.649 308.626 169.596 308.651C169.542 308.676 169.494 308.712 169.455 308.756L168.347 308.955C167.391 309.533 166.628 310.384 166.159 311.399C165.689 312.413 165.533 313.545 165.711 314.649C165.736 315.065 165.866 315.469 166.089 315.822C166.312 316.175 166.62 316.467 166.985 316.669Z" fill="#B27B60"/>
<path d="M223.042 308.095C222.11 307.62 221.076 307.383 220.03 307.403C218.984 307.424 217.96 307.701 217.047 308.212C216.36 308.575 215.784 309.116 215.378 309.778C214.918 310.385 214.715 311.148 214.812 311.902C214.965 312.511 215.315 313.052 215.808 313.439C216.301 313.827 216.909 314.04 217.536 314.046C218.797 314.034 220.03 313.678 221.105 313.018C221.698 312.798 222.236 312.449 222.681 311.998C223.126 311.547 223.466 311.004 223.678 310.407C224.135 308.814 224.105 308.806 223.042 308.095Z" fill="#652700"/>
<path d="M200.968 302.644C200.151 302.44 199.29 302.503 198.511 302.823C197.732 303.143 197.076 303.705 196.638 304.425C195.76 305.909 195.257 307.586 195.173 309.309C195.051 309.783 195.041 310.278 195.142 310.757C195.243 311.235 195.453 311.684 195.755 312.069C196.631 312.862 198.006 312.404 199.127 311.78C200.951 310.609 202.394 308.931 203.28 306.952C203.607 306.42 203.784 305.81 203.794 305.186C203.804 304.562 203.645 303.947 203.335 303.406C202.44 302.311 202.168 302.963 200.968 302.644Z" fill="#652700"/>
<path d="M170.425 345.938C171.007 344.618 171.38 343.216 171.532 341.782C171.624 341.468 171.648 341.138 171.604 340.814C171.56 340.489 171.448 340.178 171.275 339.9C171.139 339.773 170.976 339.676 170.799 339.619C170.621 339.561 170.433 339.543 170.248 339.566C170.062 339.589 169.884 339.652 169.726 339.752C169.568 339.851 169.434 339.984 169.333 340.141L168.621 340.215L168.467 340.174L168.264 340.318C167.424 340.427 166.655 340.845 166.107 341.491C165.567 342.143 165.119 342.867 164.776 343.642C164.429 344.188 164.202 344.802 164.111 345.443C164.02 346.084 164.066 346.737 164.247 347.358C164.555 347.954 165.064 348.421 165.684 348.676C166.303 348.932 166.994 348.96 167.632 348.754C168.27 348.509 168.848 348.131 169.33 347.645C169.811 347.16 170.184 346.578 170.425 345.938Z" fill="#652700"/>
<path d="M184.331 352.114C185.061 352.426 185.859 352.545 186.649 352.461C187.438 352.377 188.193 352.092 188.841 351.634C190.157 350.69 191.295 349.519 192.2 348.177C192.556 347.789 192.833 347.337 193.016 346.844C193.095 346.604 193.107 346.346 193.051 346.099C192.995 345.852 192.873 345.624 192.698 345.441C192.522 345.291 192.314 345.183 192.091 345.123C191.867 345.064 191.634 345.055 191.406 345.097C190.949 345.206 190.498 345.415 190.048 345.493C189.04 345.477 188.038 345.332 187.066 345.062C186.202 344.984 185.335 345.179 184.586 345.617C183.837 346.056 183.244 346.718 182.889 347.51C182.524 348.321 182.469 349.238 182.735 350.086C183.001 350.935 183.569 351.656 184.331 352.114Z" fill="#652700"/>
<path d="M204.258 331.114C204.753 330.416 205.164 329.662 205.482 328.868C205.606 328.643 205.673 328.391 205.679 328.134C205.684 327.877 205.627 327.623 205.513 327.393C205.096 326.853 204.251 327.057 203.607 327.248L200.439 328.382C199.656 328.62 198.91 328.965 198.222 329.407C197.531 329.866 197.046 330.577 196.87 331.388C196.797 331.96 196.921 332.54 197.221 333.034C197.52 333.527 197.978 333.903 198.52 334.102C199.085 334.291 199.686 334.349 200.277 334.272C200.868 334.195 201.434 333.986 201.933 333.659C202.873 332.978 203.664 332.112 204.258 331.114Z" fill="#652700"/>
<path d="M221.712 330.652C221.528 330 221.097 329.445 220.512 329.105C219.926 328.764 219.231 328.665 218.573 328.827C217.89 329.024 217.263 329.38 216.743 329.867C216.224 330.353 215.828 330.956 215.588 331.626C215.093 332.936 214.91 334.343 215.053 335.736C215.026 335.961 215.051 336.189 215.125 336.403C215.2 336.617 215.321 336.811 215.482 336.971C215.727 337.105 216.003 337.172 216.282 337.166C216.562 337.159 216.835 337.079 217.073 336.933C218.79 336.192 220.212 334.9 221.115 333.263C221.619 332.492 221.831 331.566 221.712 330.652Z" fill="#652700"/>
<path d="M242.095 316.103C242.751 315.88 243.346 315.508 243.834 315.017C244.338 314.497 244.626 313.806 244.641 313.083C244.657 312.359 244.398 311.657 243.918 311.116C243.5 310.757 243.006 310.496 242.473 310.354C241.94 310.212 241.382 310.193 240.841 310.297C239.429 310.489 238.082 311.011 236.909 311.821C236.027 312.381 235.337 313.198 234.935 314.163C234.734 314.623 234.68 315.134 234.778 315.626C234.877 316.118 235.124 316.568 235.487 316.915C235.896 317.166 236.358 317.321 236.836 317.368C237.314 317.416 237.796 317.354 238.248 317.188C239.561 316.949 240.849 316.585 242.095 316.103Z" fill="#652700"/>
<path d="M183.867 316.748C183.181 316.538 182.459 316.469 181.746 316.546C180.554 316.91 179.496 317.616 178.701 318.577C177.906 319.537 177.411 320.709 177.275 321.949C177.187 322.396 177.213 322.858 177.351 323.292C177.489 323.726 177.734 324.119 178.063 324.433C178.34 324.635 178.663 324.765 179.002 324.809C179.342 324.853 179.687 324.811 180.006 324.687C180.67 324.441 181.27 324.049 181.761 323.539C182.605 322.735 183.336 321.821 183.935 320.821C184.311 320.23 184.575 319.573 184.714 318.886C184.77 318.548 184.757 318.201 184.676 317.868C184.594 317.535 184.447 317.222 184.242 316.947C183.789 316.299 184.443 316.44 183.867 316.748Z" fill="#652700"/>
<path d="M168.215 316.996C169.686 316.591 171.028 315.813 172.111 314.737C172.633 314.176 173.009 313.495 173.206 312.754C173.403 312.014 173.416 311.236 173.243 310.489C173.03 309.852 172.636 309.291 172.109 308.875C171.581 308.459 170.944 308.207 170.274 308.149L169.998 308.076C169.293 308.302 168.654 308.697 168.135 309.224C167.615 309.752 167.232 310.397 167.016 311.106C166.591 312.529 166.386 314.008 166.407 315.493C166.36 315.766 166.375 316.047 166.453 316.313C166.53 316.58 166.668 316.825 166.855 317.03C167.212 317.422 167.694 317.22 168.215 316.996Z" fill="#652700"/>
<path d="M126.259 286.584C123.347 285.741 120.435 288.077 117.419 288.046C114.403 288.015 111.737 285.78 108.861 286.311C105.984 286.843 104.159 290.3 101.92 292.458C99.5331 294.445 96.8602 296.061 93.9914 297.25C91.2669 298.661 88.5282 300.738 87.6588 303.719C87.3202 305.419 87.4583 307.179 88.0578 308.806C88.6574 310.432 89.6949 311.86 91.0557 312.932C93.8054 315.063 96.9343 316.651 100.276 317.614C109.23 321.047 118.46 323.709 127.867 325.573C129.904 326.045 132.023 326.05 134.062 325.585C135.076 325.342 135.993 324.802 136.698 324.034C137.402 323.265 137.861 322.304 138.015 321.273C138.13 319.531 137.137 317.947 137.041 316.214C136.886 313.138 138.977 310.768 138.136 307.57C137.248 304.987 135.847 302.611 134.018 300.584C132.973 299.261 132.118 297.799 131.479 296.239C130.892 294.637 130.845 292.927 130.349 291.301C130.101 290.242 129.599 289.259 128.886 288.437C128.174 287.616 127.272 286.98 126.259 286.584Z" fill="#993A12"/>
<g style="mix-blend-mode:screen" opacity="0.32">
<path d="M108.931 300.022C113.343 302.338 114.811 299.485 118.729 298.488C120.956 297.853 123.322 297.896 125.525 298.612C127.925 299.308 130.011 300.814 131.428 302.873C132.865 305.391 132.937 308.422 134.309 310.897C135.006 312.138 136.049 313.149 137.311 313.807C137.813 311.78 138.737 309.895 138.104 307.548C137.216 304.966 135.815 302.59 133.986 300.562C132.941 299.24 132.086 297.778 131.446 296.218C130.86 294.615 130.813 292.906 130.317 291.279C130.066 290.231 129.566 289.258 128.859 288.444C128.152 287.629 127.26 286.998 126.257 286.602C123.344 285.758 120.433 288.095 117.417 288.064C114.401 288.033 111.735 285.798 108.859 286.329C105.982 286.86 104.417 289.789 102.452 291.999C103.527 295.393 105.841 298.257 108.931 300.022Z" fill="#A24B27"/>
</g>
<g style="mix-blend-mode:multiply" opacity="0.55">
<path d="M100.763 298.125C103.272 299.796 107.199 302.752 109.821 300.345C107.34 300.164 104.986 299.175 103.121 297.528C101.949 296.331 101.262 294.742 101.193 293.068C99.8784 294.143 98.4365 295.052 96.8998 295.773C98.2183 296.59 99.5154 297.299 100.763 298.125Z" fill="#8C3A12"/>
</g>
<g style="mix-blend-mode:multiply" opacity="0.55">
<path d="M120.616 295.232C121.434 295.459 122.237 295.737 123.021 296.064C124.553 297.066 126.161 297.945 127.832 298.693C129.387 298.981 130.993 298.799 132.445 298.171C132.078 297.571 131.759 296.943 131.489 296.294C131.303 295.746 131.151 295.187 131.034 294.62C129.834 295.139 128.566 295.487 127.269 295.653C125.104 295.836 122.497 294.241 120.616 295.232Z" fill="#8C3A12"/>
</g>
<g style="mix-blend-mode:multiply" opacity="0.55">
<path d="M124.321 313.513C121.888 312.203 120.543 309.24 117.145 310.847C115.794 311.588 114.258 311.924 112.721 311.814L111.874 311.707C113.809 314.587 118.343 313.44 121.367 313.964C122.979 314.477 124.671 314.691 126.36 314.597C125.656 314.284 124.974 313.922 124.321 313.513Z" fill="#8C3A12"/>
</g>
<g style="mix-blend-mode:multiply" opacity="0.55">
<path d="M127.696 305.035L127.384 305.136C128.589 305.816 129.717 306.624 130.748 307.547C132.848 309.305 135.486 310.29 138.224 310.339C138.414 309.412 138.391 308.454 138.158 307.538C137.818 306.278 137.276 305.082 136.553 303.997C135.505 304.853 134.211 305.354 132.86 305.426C131.162 305.527 129.327 304.627 127.696 305.035Z" fill="#8C3A12"/>
</g>
<path d="M138.015 321.273C135.823 323.191 132.882 323.538 129.433 320.835C125.983 318.132 122.621 320.833 119.103 319.227C115.778 317.752 113.901 314.142 110.141 314.578C108.897 314.732 107.635 314.574 106.467 314.12C105.299 313.665 104.262 312.928 103.449 311.974C101.785 310.006 98.7098 311.689 96.5375 311.098C95.2762 310.766 94.0641 310.27 92.9325 309.622C89.1429 307.385 88.7425 304.173 89.5049 300.651C88.6367 301.543 87.9935 302.63 87.6284 303.821C87.2898 305.521 87.4279 307.281 88.0274 308.907C88.627 310.533 89.6645 311.961 91.0253 313.034C93.775 315.164 96.9039 316.753 100.246 317.716C109.2 321.148 118.43 323.811 127.836 325.674C129.874 326.147 131.992 326.151 134.032 325.686C135.065 325.443 136 324.89 136.711 324.101C137.423 323.313 137.877 322.326 138.015 321.273Z" fill="#792C12"/>
<path d="M129.834 323.486C128.783 324.16 127.913 324.788 126.743 324.324C125.392 323.789 124.303 322.75 123.704 321.427C122.382 322.436 121.8 323.434 120.051 322.544C118.81 321.933 117.722 321.051 116.867 319.963C115.732 320.469 115.39 321.093 114.116 320.615C112.498 320.031 111.133 318.901 110.255 317.421C107.2 318.527 104.255 317.943 103.177 315.364C102.752 315.59 102.287 315.728 101.808 315.769C101.329 315.811 100.847 315.757 100.39 315.608C98.6519 314.957 97.1808 313.745 96.2092 312.163C93.0155 312.566 91.2419 312.57 89.2715 310.247L89.4007 342.057C97.0637 347.755 106.177 351.175 115.696 351.924L133.101 325.41C132.457 325.32 131.836 325.104 131.276 324.774C130.715 324.443 130.225 324.006 129.834 323.486Z" fill="#BE4C1B"/>
<path d="M94.4583 313.785C91.56 322.634 90.5591 331.994 91.5211 341.255C91.5211 341.255 98.3297 323.41 94.4583 313.785Z" fill="#8F3300"/>
<path d="M102.089 317.299C102.089 317.299 94.9833 329.871 96.3233 344.094C96.3233 344.094 104.676 326.814 102.089 317.299Z" fill="#8F3300"/>
<path d="M109.454 319.726C104.598 327.661 101.966 336.756 101.833 346.057C101.833 346.057 110.654 328.819 109.454 319.726Z" fill="#8F3300"/>
<path d="M116.109 322.344C116.109 322.344 107.272 334.17 106.46 347.224C106.46 347.224 115.963 331.811 116.109 322.344Z" fill="#8F3300"/>
<path d="M122.296 324.92C116.506 331.526 112.427 339.453 110.416 348.006C110.416 348.006 120.331 335.438 122.296 324.92Z" fill="#8F3300"/>
<path d="M128.351 326.319C122.122 332.743 117.252 340.359 114.032 348.709C114.032 348.709 126.373 335.694 128.351 326.319Z" fill="#8F3300"/>
<g style="mix-blend-mode:multiply" opacity="0.5">
<path d="M108.07 337.292C104.17 334.262 101.317 330.085 99.9105 325.349C99.0744 322.942 98.2945 320.507 97.6249 318.033C97.2451 316.598 97.0123 315.11 96.7449 313.618C93.7824 313.998 92.132 314 90.2974 311.853L90.4155 341.395C97.5391 346.684 106.008 349.857 114.852 350.552L120.683 341.666C116.176 341.3 111.836 339.795 108.07 337.292Z" fill="#9E5838"/>
</g>
<g style="mix-blend-mode:screen" opacity="0.32">
<path d="M133.065 302.15C132.918 301.879 132.675 301.672 132.383 301.571L127.004 299.133C126.23 298.733 125.404 298.445 124.549 298.277C124.123 298.189 123.683 298.191 123.257 298.282C122.832 298.373 122.43 298.552 122.077 298.807C121.729 299.071 121.479 299.442 121.365 299.863C121.252 300.284 121.281 300.731 121.448 301.134C121.65 301.461 121.933 301.73 122.27 301.914C122.606 302.099 122.985 302.192 123.369 302.186C124.141 302.162 124.904 302.022 125.634 301.77C126.365 301.52 127.144 301.445 127.909 301.549C129.434 301.848 130.654 303.443 132.197 303.181C132.707 303.035 133.232 302.628 133.065 302.15Z" fill="#B27B60"/>
</g>
<g style="mix-blend-mode:screen" opacity="0.32">
<path d="M107.564 290.17L105.512 291.403C105.03 291.62 104.631 291.989 104.378 292.454C103.988 293.317 104.729 294.255 105.606 294.682C107.203 294.996 108.857 294.839 110.368 294.231C112.069 293.863 113.832 293.9 115.516 294.339C116.07 294.527 116.641 294.658 117.222 294.731C117.521 294.756 117.823 294.714 118.104 294.607C118.385 294.499 118.638 294.33 118.845 294.111C119.048 293.782 119.144 293.397 119.121 293.011C119.098 292.625 118.956 292.255 118.715 291.952C118.215 291.365 117.591 290.896 116.888 290.579C115.807 289.966 114.662 289.474 113.475 289.11C112.284 288.747 111.015 288.726 109.813 289.05C109.018 289.322 108.261 289.699 107.564 290.17Z" fill="#B27B60"/>
</g>
<g style="mix-blend-mode:screen" opacity="0.32">
<path d="M128.233 313.675C127.561 313.431 126.866 313.254 126.158 313.148C124.517 312.744 123.052 311.819 121.981 310.511C123.871 310.872 125.809 310.904 127.71 310.605C129.622 310.298 131.581 310.67 133.247 311.658C133.679 311.947 134.041 312.329 134.306 312.776C134.571 313.223 134.733 313.723 134.78 314.241C134.808 314.762 134.659 315.276 134.356 315.701C134.054 316.125 133.616 316.434 133.115 316.577C132.627 316.616 132.137 316.543 131.682 316.364C131.227 316.185 130.819 315.903 130.49 315.542C129.828 314.818 129.068 314.19 128.233 313.675Z" fill="#B27B60"/>
</g>
<g style="mix-blend-mode:screen" opacity="0.32">
<path d="M111.689 303.339C111.6 303.649 111.59 303.975 111.657 304.29C111.724 304.605 111.867 304.898 112.074 305.145C112.51 305.641 113.068 306.015 113.692 306.228C116.307 307.056 119.088 307.216 121.78 306.691C122.348 306.64 123.061 306.414 123.08 305.855C123.061 305.684 123.004 305.52 122.913 305.374C122.822 305.229 122.699 305.106 122.554 305.015C120.295 303.11 117.443 302.053 114.488 302.026C113.943 301.991 113.397 302.065 112.881 302.243C112.617 302.333 112.374 302.477 112.169 302.666C111.964 302.854 111.8 303.084 111.689 303.339Z" fill="#B27B60"/>
</g>
<g style="mix-blend-mode:screen" opacity="0.32">
<path d="M101.025 302.146C100.198 301.906 99.3982 301.581 98.6378 301.176C97.7851 300.522 96.8497 299.984 95.8561 299.576C95.3147 299.437 94.7455 299.452 94.2119 299.618C93.6784 299.785 93.2016 300.096 92.8348 300.518C92.4681 300.94 92.2258 301.456 92.135 302.008C92.0443 302.559 92.1087 303.125 92.321 303.642C92.5859 304.189 92.9665 304.67 93.4362 305.054C93.9059 305.439 94.4536 305.716 95.0412 305.867C96.2277 306.166 97.4461 306.321 98.6697 306.327C99.8964 306.294 101.117 306.508 102.259 306.957C103.14 307.35 103.884 307.989 104.782 308.384C105.209 308.616 105.691 308.727 106.177 308.705C106.662 308.683 107.132 308.529 107.537 308.258C107.827 307.978 108.032 307.62 108.125 307.227C108.218 306.834 108.197 306.423 108.063 306.042C107.781 305.279 107.241 304.639 106.537 304.232C105.836 303.839 105.092 303.527 104.32 303.301L101.025 302.146Z" fill="#B27B60"/>
</g>
<path d="M127.277 292.545L127.18 292.199C127.171 291.982 127.112 291.771 127.009 291.581C126.905 291.392 126.759 291.228 126.582 291.104C126.224 290.86 125.822 290.69 125.399 290.603C124.671 290.445 123.922 290.409 123.183 290.497C122.575 290.579 121.894 290.826 121.751 291.405C121.722 291.565 121.728 291.728 121.769 291.885C121.809 292.042 121.884 292.188 121.987 292.313C122.194 292.562 122.449 292.767 122.735 292.918C123.498 293.333 124.341 293.577 125.208 293.635C125.748 293.722 126.301 293.604 126.759 293.305C127.203 292.992 127.572 292.986 127.277 292.545Z" fill="#652700"/>
<path d="M105.935 289.998C106.06 290.226 106.24 290.419 106.458 290.56C106.676 290.701 106.926 290.786 107.185 290.806C107.706 290.952 108.252 290.985 108.788 290.904C109.056 290.866 109.313 290.77 109.54 290.623C109.768 290.476 109.961 290.281 110.107 290.053C110.248 289.824 110.313 289.558 110.293 289.29C110.274 289.023 110.17 288.768 109.997 288.563C109.996 288.501 109.972 288.441 109.928 288.397C109.885 288.352 109.826 288.326 109.764 288.323L109.303 287.948C108.764 287.764 108.182 287.75 107.635 287.906C107.088 288.063 106.602 288.384 106.242 288.825C106.103 288.983 106.002 289.171 105.949 289.375C105.895 289.579 105.891 289.792 105.935 289.998Z" fill="#B27B60"/>
<path d="M128.409 309.516C128.27 308.98 128.005 308.484 127.636 308.071C127.267 307.658 126.805 307.338 126.288 307.139C125.935 307.007 125.556 306.959 125.182 306.999C124.993 307.022 124.811 307.082 124.645 307.176C124.48 307.269 124.335 307.395 124.217 307.544C124.061 307.821 123.991 308.138 124.017 308.454C124.042 308.77 124.162 309.072 124.361 309.319C124.793 309.823 125.351 310.203 125.977 310.42C126.265 310.583 126.586 310.678 126.916 310.695C127.246 310.712 127.575 310.653 127.878 310.52C128.475 310.245 128.555 310.167 128.409 309.516Z" fill="#652700"/>
<path d="M122.837 298.762C122.648 298.371 122.337 298.051 121.952 297.85C121.566 297.649 121.126 297.578 120.696 297.648C119.841 297.802 119.039 298.172 118.366 298.723C118.148 298.849 117.961 299.022 117.817 299.228C117.673 299.434 117.575 299.669 117.53 299.917C117.539 300.533 118.172 300.946 118.763 301.127C119.818 301.439 120.942 301.435 121.995 301.115C122.598 300.928 123.245 300.535 123.341 299.915C123.437 299.295 123.074 299.39 122.837 298.762Z" fill="#652700"/>
<path d="M95.7162 301.508C96.4237 301.25 97.0901 300.891 97.6947 300.442C97.8507 300.365 97.9886 300.255 98.0994 300.121C98.2102 299.987 98.2914 299.83 98.3377 299.663C98.3467 299.564 98.3328 299.464 98.297 299.372C98.2613 299.279 98.2047 299.196 98.1316 299.129C98.0586 299.062 97.9711 299.013 97.8759 298.985C97.7807 298.958 97.6804 298.952 97.5829 298.97L97.3003 298.706L97.32 298.55L97.1991 298.535C96.8614 298.236 96.4278 298.069 95.9772 298.064C95.538 298.075 95.1027 298.15 94.6849 298.286C94.3458 298.338 94.0217 298.462 93.7344 298.65C93.4472 298.838 93.2034 299.085 93.0196 299.375C92.9062 299.707 92.9063 300.068 93.0199 300.4C93.1334 300.733 93.3541 301.018 93.6471 301.211C93.9521 301.403 94.2938 301.528 94.6501 301.579C95.0065 301.63 95.3696 301.606 95.7162 301.508Z" fill="#652700"/>
<path d="M98.1003 309.434C98.2264 309.844 98.455 310.216 98.7644 310.513C99.0738 310.81 99.4539 311.024 99.8687 311.134C100.702 311.329 101.563 311.379 102.413 311.28C102.681 311.28 102.945 311.223 103.189 311.115C103.313 311.065 103.421 310.982 103.5 310.874C103.579 310.766 103.625 310.638 103.635 310.504C103.635 310.378 103.606 310.253 103.55 310.14C103.495 310.026 103.414 309.927 103.315 309.849C103.105 309.699 102.872 309.6 102.665 309.433C102.458 309.266 102.116 308.503 101.806 308.042C101.546 307.664 101.171 307.381 100.737 307.235C100.303 307.088 99.8337 307.085 99.3982 307.227C98.9524 307.377 98.5755 307.682 98.337 308.088C98.0985 308.493 98.0145 308.971 98.1003 309.434Z" fill="#652700"/>
<path d="M113.209 310.049C113.648 310.008 114.079 309.909 114.492 309.755C114.752 309.647 115.016 309.505 115.068 309.231C115.12 308.956 114.762 308.595 114.454 308.398L112.911 307.552C112.558 307.318 112.172 307.139 111.767 307.021C111.56 306.958 111.343 306.938 111.129 306.962C110.914 306.986 110.707 307.054 110.52 307.161C110.26 307.348 110.072 307.619 109.988 307.928C109.904 308.238 109.929 308.566 110.059 308.859C110.176 309.144 110.356 309.399 110.585 309.605C110.814 309.81 111.087 309.961 111.383 310.046C111.985 310.17 112.606 310.171 113.209 310.049Z" fill="#652700"/>
<path d="M119.472 317.009C119.65 316.69 119.708 316.317 119.634 315.959C119.56 315.601 119.359 315.282 119.069 315.06C118.766 314.854 118.419 314.722 118.055 314.676C117.692 314.63 117.323 314.671 116.978 314.795C116.296 315.068 115.692 315.504 115.22 316.066C115.122 316.143 115.043 316.241 114.986 316.352C114.93 316.463 114.898 316.585 114.892 316.709C114.919 316.855 114.984 316.99 115.081 317.101C115.178 317.213 115.304 317.296 115.444 317.341C116.319 317.786 117.32 317.913 118.278 317.7C118.513 317.672 118.741 317.597 118.946 317.478C119.151 317.359 119.33 317.199 119.472 317.009Z" fill="#652700"/>
<path d="M132.071 320.099C132.382 320.278 132.727 320.388 133.084 320.42C133.462 320.432 133.829 320.294 134.105 320.036C134.381 319.778 134.544 319.421 134.558 319.043C134.535 318.75 134.451 318.464 134.311 318.204C134.172 317.945 133.98 317.717 133.748 317.536C133.194 317.039 132.528 316.684 131.808 316.499C131.296 316.342 130.747 316.352 130.242 316.529C129.995 316.621 129.782 316.787 129.633 317.003C129.483 317.22 129.403 317.477 129.403 317.74C129.457 317.996 129.563 318.237 129.714 318.45C129.866 318.662 130.059 318.841 130.283 318.976C130.847 319.399 131.445 319.774 132.071 320.099Z" fill="#652700"/>
<path d="M111.616 296.849C111.472 296.498 111.254 296.183 110.978 295.925C110.452 295.586 109.838 295.41 109.213 295.418C108.587 295.426 107.978 295.619 107.461 295.971C107.257 296.094 107.088 296.267 106.967 296.472C106.846 296.677 106.777 296.909 106.767 297.147C106.792 297.328 106.858 297.5 106.961 297.651C107.064 297.801 107.201 297.925 107.36 298.013C107.66 298.132 107.981 298.191 108.304 298.185C108.892 298.253 109.488 298.227 110.069 298.11C110.422 298.059 110.761 297.935 111.063 297.745C111.213 297.648 111.342 297.523 111.442 297.375C111.542 297.228 111.611 297.062 111.646 296.887C111.787 296.607 111.979 296.895 111.616 296.849Z" fill="#652700"/>
<path d="M106.17 290.643C106.836 291.059 107.599 291.294 108.383 291.328C108.776 291.342 109.165 291.255 109.514 291.074C109.863 290.894 110.159 290.626 110.375 290.298C110.538 289.994 110.613 289.651 110.592 289.306C110.57 288.962 110.453 288.631 110.253 288.35L110.126 288.246C109.804 288.044 109.438 287.924 109.06 287.894C108.682 287.864 108.302 287.927 107.953 288.076C107.25 288.385 106.603 288.807 106.038 289.327C105.822 289.51 105.584 289.726 105.601 290.009C105.618 290.292 105.926 290.489 106.17 290.643Z" fill="#652700"/>
<path d="M129.908 425.366C123.936 430.782 113.568 430.311 108.264 424.462C102.959 418.612 101.464 412.012 107.436 406.596C113.408 401.18 118.937 402.48 124.242 408.33C129.546 414.179 135.88 419.951 129.908 425.366Z" fill="url(#paint10_linear_207_91)"/>
<path d="M199.105 223.296C194.798 227.202 188.628 228.305 186.215 225.644C183.802 222.982 183.777 219.384 188.084 215.478C192.391 211.572 195.543 211.588 197.956 214.249C200.369 216.91 203.412 219.39 199.105 223.296Z" fill="#D56C48"/>
<path d="M159.422 324.566C160.357 327.583 159.484 330.875 157.62 331.453C155.755 332.031 153.977 331.217 153.042 328.199C152.107 325.182 152.838 323.633 154.702 323.055C156.567 322.477 158.486 321.548 159.422 324.566Z" fill="#D56C48"/>
<circle cx="169.5" cy="266.5" r="3.5" fill="#A73D22"/>
<path d="M118.68 257.995C117.036 259.745 113.198 257.631 111.208 255.641C109.218 253.652 106.7 249.733 109.6 246.834C112.499 243.934 116.38 247.947 118.37 249.937C120.36 251.926 120.324 256.245 118.68 257.995Z" fill="#E3AB5C"/>
<path d="M13.2471 216.114C12.5953 207.88 19.5164 199.764 27.6314 199.122C35.7464 198.479 42.0727 201.397 42.7245 209.631C43.3763 217.866 38.8299 221.538 30.7148 222.18C22.5998 222.822 13.8988 224.349 13.2471 216.114Z" fill="#FF0000"/>
<path d="M274.475 99.3633C275.252 102.261 273.316 105.616 270.46 106.381C267.605 107.147 265.153 106.522 264.377 103.625C263.6 100.727 264.981 99.1156 267.837 98.3504C270.693 97.5853 273.699 96.4657 274.475 99.3633Z" fill="url(#paint11_linear_207_91)"/>
<defs>
<linearGradient id="paint0_linear_207_91" x1="311.111" y1="3.9502" x2="322.978" y2="-55.3439" gradientUnits="userSpaceOnUse">
<stop stop-color="#FF0000"/>
<stop offset="1" stop-color="#FF0000"/>
</linearGradient>
<linearGradient id="paint1_linear_207_91" x1="188" y1="0" x2="188" y2="370" gradientUnits="userSpaceOnUse">
<stop stop-color="white"/>
<stop offset="1" stop-color="white" stop-opacity="0"/>
</linearGradient>
<linearGradient id="paint2_linear_207_91" x1="293.303" y1="437.829" x2="372.744" y2="393.289" gradientUnits="userSpaceOnUse">
<stop stop-color="#FF0000"/>
<stop offset="1" stop-color="#FF0000"/>
</linearGradient>
<linearGradient id="paint3_linear_207_91" x1="298.355" y1="203.924" x2="313.774" y2="206.799" gradientUnits="userSpaceOnUse">
<stop stop-color="#FF0000"/>
<stop offset="1" stop-color="#FF0000"/>
</linearGradient>
<linearGradient id="paint4_linear_207_91" x1="208.201" y1="219.857" x2="223.613" y2="222.751" gradientUnits="userSpaceOnUse">
<stop stop-color="#FF0000"/>
<stop offset="1" stop-color="#FF0000"/>
</linearGradient>
<linearGradient id="paint5_linear_207_91" x1="267.034" y1="184.704" x2="277.018" y2="186.717" gradientUnits="userSpaceOnUse">
<stop stop-color="#FF0000"/>
<stop offset="1" stop-color="#FF0000"/>
</linearGradient>
<linearGradient id="paint6_linear_207_91" x1="239.495" y1="243.379" x2="249.476" y2="245.4" gradientUnits="userSpaceOnUse">
<stop stop-color="#FF0000"/>
<stop offset="1" stop-color="#FF0000"/>
</linearGradient>
<linearGradient id="paint7_linear_207_91" x1="243.141" y1="223.12" x2="254.226" y2="225.307" gradientUnits="userSpaceOnUse">
<stop stop-color="#FF0000"/>
<stop offset="1" stop-color="#FF0000"/>
</linearGradient>
<linearGradient id="paint8_linear_207_91" x1="237.236" y1="176.1" x2="248.321" y2="178.286" gradientUnits="userSpaceOnUse">
<stop stop-color="#FF0000"/>
<stop offset="1" stop-color="#FF0000"/>
</linearGradient>
<linearGradient id="paint9_linear_207_91" x1="283.279" y1="235.59" x2="294.364" y2="237.777" gradientUnits="userSpaceOnUse">
<stop stop-color="#FF0000"/>
<stop offset="1" stop-color="#FF0000"/>
</linearGradient>
<linearGradient id="paint10_linear_207_91" x1="116.845" y1="398.064" x2="134.168" y2="426.888" gradientUnits="userSpaceOnUse">
<stop stop-color="#FF0000"/>
<stop offset="1" stop-color="#FF0000"/>
</linearGradient>
<linearGradient id="paint11_linear_207_91" x1="263.153" y1="99.0597" x2="275.714" y2="98.2399" gradientUnits="userSpaceOnUse">
<stop stop-color="#FF0000"/>
<stop offset="1" stop-color="#FF0000"/>
</linearGradient>
</defs>
</svg>
